<svg height="16" viewBox="0 0 16 16" width="16" xmlns="http://www.w3.org/2000/svg"><path d="m8.5 12.4a7 7 0 0 1 -5.8-8 8.8 8.8 0 0 1 .5-1.5 5.5 5.5 0 0 1 1.4-2.2 7.9 7.9 0 0 0 -4.3 4.8 8 8 0 0 0 5.3 9.9 7.9 7.9 0 0 0 9.8-5.3 4.3 4.3 0 0 0 .2-1.1c0 .1-.1.2-.1.3a7.1 7.1 0 0 1 -7 3.1z" fill="#fff"/><path d="m8.5 12.4a7 7 0 0 1 -5.8-8 8.8 8.8 0 0 1 .5-1.5 5.9 5.9 0 0 0 -1 2.6 6.9 6.9 0 0 0 5.7 8 7 7 0 0 0 7.6-4.2 7.1 7.1 0 0 1 -7 3.1z" fill="#e6e6e6"/><g stroke-miterlimit="10"><rect fill="#f2f2f2" height="4.69" rx=".3" stroke="#000" stroke-width=".05" transform="matrix(.97629601 .21643961 -.21643961 .97629601 3 -2.8)" width="2.9" x="12.7" y="9.9"/><path d="m14.4 12 .2-.2c.1-.1 0-.3-.2-.3h-.6a.8.8 0 0 1 .7-.2.5.5 0 0 1 .4.5l-.4.4-.3.2h-.1a.4.4 0 0 1 -.1-.3zm-.3.8c.1 0 .1.1.1.2h-.2v-.2z" stroke="#f2f2f2" stroke-width=".05"/><g stroke-width=".04"><rect fill="#f2f2f2" height="3.66" rx=".2" stroke="#000" transform="matrix(.98822838 -.15298584 .15298584 .98822838 -1.9 2)" width="2.2" x="11.2" y="11.4"/><path d="m12.4 13 .2-.2c0-.1-.1-.2-.3-.1l-.3.2v-.2l.4-.2c.3-.1.5 0 .5.2a.5.5 0 0 1 -.2.4c-.1.1-.1.1-.1.2h-.1v-.2c-.2.1-.1 0-.1-.1zm.1.6h.1c0 .1 0 .2-.1.2h-.1c0-.1 0-.2.1-.2z" stroke="#f2f2f2"/></g></g></svg>