<svg height="32" viewBox="0 0 32 32" width="32" xmlns="http://www.w3.org/2000/svg"><path d="m16.9 24.8a13.9 13.9 0 0 1 -11.5-16 13.2 13.2 0 0 1 .9-3 15.1 15.1 0 0 1 2.9-4.5 16 16 0 0 0 -8.5 9.8 15.7 15.7 0 1 0 30.1 9.1 17.4 17.4 0 0 0 .5-2.2l-.4.5a13.9 13.9 0 0 1 -14 6.3z" fill="#fff"/><path d="m16.9 24.8a13.9 13.9 0 0 1 -11.5-16 13.2 13.2 0 0 1 .9-3 14.3 14.3 0 0 0 -2 5.1 13.9 13.9 0 0 0 11.5 16 13.8 13.8 0 0 0 15.1-8.4 13.9 13.9 0 0 1 -14 6.3z" fill="#e6e6e6"/><g stroke-miterlimit="10"><rect fill="#f2f2f2" height="9.38" rx=".5" stroke="#000" stroke-width=".09" transform="matrix(.97629601 .21643961 -.21643961 .97629601 6 -5.5)" width="5.7" x="25.5" y="19.8"/><path d="m28.7 24.1c.3-.1.6-.2.6-.4s-.1-.6-.5-.7a1.2 1.2 0 0 0 -.9.3l-.2-.4a1.6 1.6 0 0 1 1.2-.2c.7.1 1 .5.9 1a1.1 1.1 0 0 1 -.8.7c-.3.1-.5.2-.5.4s0 .2 0 .3h-.3a.9.9 0 0 1 -.1-.5 1.2 1.2 0 0 1 .6-.5zm-.5 1.5c.2.1.3.2.2.4s-.2.2-.3.2-.3-.2-.2-.3a.3.3 0 0 1 .3-.3z" stroke="#f2f2f2" stroke-width=".09"/><rect fill="#f2f2f2" height="7.32" rx=".4" stroke="#000" stroke-width=".07" transform="matrix(.99 -.15 .15 .99 -3.75 4.08)" width="4.5" x="22.4" y="22.7"/><path d="m24.9 26 .2-.4a.3.3 0 0 0 -.5-.3c-.3 0-.4.2-.5.4l-.3-.2a1 1 0 0 1 .8-.6c.5-.1.9.2.9.5a.8.8 0 0 1 -.3.8c-.2.1-.3.2-.3.4s.1.1.1.2h-.2c-.2-.1-.2-.2-.2-.3s.1-.3.3-.5zm0 1.2c.2 0 .3.1.3.2s-.1.3-.2.3-.3 0-.3-.2.1-.3.2-.3z" stroke="#f2f2f2" stroke-width=".07"/></g></svg>