<svg height="64" viewBox="0 0 64 64" width="64" xmlns="http://www.w3.org/2000/svg"><path d="m33.8 49.6a27.9 27.9 0 0 1 -22.9-32 32.5 32.5 0 0 1 1.7-6.1 27.8 27.8 0 0 1 5.9-8.8 31.4 31.4 0 0 0 3.8 58.7 31.3 31.3 0 0 0 39.2-20.9 38.4 38.4 0 0 0 1.1-4.6l-.7 1.1a27.8 27.8 0 0 1 -28.1 12.6z" fill="#fff"/><path d="m33.8 49.6a27.9 27.9 0 0 1 -22.9-32 32.5 32.5 0 0 1 1.7-6.1 28.4 28.4 0 0 0 -3.9 10.4 27.8 27.8 0 0 0 53.2 15.1 27.8 27.8 0 0 1 -28.1 12.6z" fill="#e6e6e6"/><g stroke-miterlimit="10"><rect fill="#f2f2f2" height="18.75" rx="1.1" stroke="#000" stroke-width=".19" transform="matrix(.97629601 .21643961 -.21643961 .97629601 11.9 -11.1)" width="11.4" x="50.9" y="39.7"/><path d="m57.5 48.3c.5-.2 1-.4 1.1-1s-.1-1-1-1.2a2 2 0 0 0 -1.8.5l-.4-.7a2.7 2.7 0 0 1 2.5-.5c1.3.2 1.9 1.1 1.7 2a1.9 1.9 0 0 1 -1.6 1.4c-.5.2-.9.4-1 .9s0 .4.1.5l-.7.2a1.6 1.6 0 0 1 -.2-1c.2-.7.8-.9 1.3-1.1zm-1 3a.6.6 0 0 1 -.3 1.1c-.3 0-.5-.4-.4-.7s.3-.5.7-.4z" stroke="#f2f2f2" stroke-width=".19"/><rect fill="#f2f2f2" height="14.65" rx=".9" stroke="#000" stroke-width=".15" transform="matrix(.98822838 -.15298584 .15298584 .98822838 -7.5 8.2)" width="8.9" x="44.7" y="45.4"/><path d="m49.7 52a1.4 1.4 0 0 0 .5-.9.8.8 0 0 0 -1-.6 1.4 1.4 0 0 0 -1.1.8l-.6-.4a2.1 2.1 0 0 1 1.7-1.1 1.4 1.4 0 0 1 1.8 1 1.7 1.7 0 0 1 -.7 1.5c-.3.3-.6.5-.5.8s.1.3.3.4l-.6.3a.8.8 0 0 1 -.4-.6 1.1 1.1 0 0 1 .6-1.2zm.1 2.4c.3 0 .6.2.6.4s-.2.6-.4.6a.4.4 0 0 1 -.6-.4c-.1-.3.1-.5.4-.6z" stroke="#f2f2f2" stroke-width=".15"/></g></svg>