<svg height="250" viewBox="0 0 250 250" width="250" xmlns="http://www.w3.org/2000/svg"><path d="m132.1 191a108.8 108.8 0 0 1 -89.5-125 113.6 113.6 0 0 1 6.7-23.7 108.1 108.1 0 0 1 22.9-34.7 122.8 122.8 0 1 0 168.2 147.6 125.2 125.2 0 0 0 4-17.7c-.8 1.5-1.7 2.9-2.6 4.3a109 109 0 0 1 -109.7 49.2z" fill="#fff"/><path d="m132.1 191a108.8 108.8 0 0 1 -89.5-125 113.6 113.6 0 0 1 6.7-23.7 108.8 108.8 0 1 0 192.5 99.5 109 109 0 0 1 -109.7 49.2z" fill="#e6e6e6"/><g stroke-miterlimit="10"><rect fill="#f2f2f2" height="73.26" rx="4.3" stroke="#000" stroke-width=".74" transform="matrix(.97629601 .21643961 -.21643961 .97629601 46 -43.3)" width="44.6" x="198.8" y="152.1"/><path d="m224.8 185.8c2-.8 3.9-1.6 4.4-3.7s-.8-4.1-4-4.8a7.9 7.9 0 0 0 -7.1 1.9l-1.5-2.6a10.9 10.9 0 0 1 9.6-2.2c5 1.1 7.3 4.6 6.6 8s-3.5 4.5-6 5.6-3.8 1.5-4.2 3.3a2.8 2.8 0 0 0 .6 2.2l-2.7.5a4.4 4.4 0 0 1 -.8-3.6c.6-2.7 2.9-3.7 5.1-4.6zm-4.2 11.8a2.4 2.4 0 0 1 1.8 2.7 2.5 2.5 0 0 1 -2.8 1.8 2.3 2.3 0 0 1 1-4.5z" stroke="#f2f2f2" stroke-width=".74"/><rect fill="#f2f2f2" height="57.22" rx="3.4" stroke="#000" stroke-width=".58" transform="matrix(.98822838 -.15298584 .15298584 .98822838 -28.9 31.9)" width="34.8" x="174.7" y="174.6"/><path d="m193.9 200.1c1.1-1.1 2.2-2.1 2-3.5s-1.5-2.5-3.8-2.1a5.7 5.7 0 0 0 -4.4 3.1l-2.2-1.7a8.5 8.5 0 0 1 6.4-4.3c4-.6 6.7 1.2 7.2 4s-1.2 4.2-2.7 5.6-2.2 2.1-2 3.5a2.1 2.1 0 0 0 1 1.3l-2.2 1.3a3.5 3.5 0 0 1 -1.6-2.5c-.4-2.1 1-3.5 2.3-4.7zm.6 9.5a2.1 2.1 0 0 1 2.3 1.7 2.2 2.2 0 0 1 -1.7 2.3 2 2 0 0 1 -2.3-1.7 2 2 0 0 1 1.7-2.3z" stroke="#f2f2f2" stroke-width=".58"/></g></svg>